<svg width="170" height="59" viewBox="0 0 170 59" fill="none" xmlns="http://www.w3.org/2000/svg">
<path d="M27.4199 32.025V31.2519V30.2099V25.2687V24.2267L28.2266 22.546L32.2603 19.3527C32.7981 18.9158 33.6048 19.2855 33.6048 19.9914V35.3191C33.6048 36.025 32.7645 36.3948 32.2266 35.9578L27.4199 32.025Z" fill="#00AC47"/>
<path d="M14.0405 17L7.51953 23.521H14.0405V17Z" fill="#EA4335"/>
<path d="M14.0405 23.5544H7.51953V32.0587H14.0405V23.5544Z" fill="#2684FC"/>
<path d="M7.51953 32.0254V36.3951C7.51953 37.6052 8.49432 38.58 9.7044 38.58H14.0742V32.059H7.51953V32.0254Z" fill="#0066DA"/>
<path d="M28.2575 19.1513C28.2575 17.9748 27.2828 17 26.1399 17H21.871H14.0391V23.521H22.0391V27.7899L28.2575 27.5882V19.1513Z" fill="#FFBA00"/>
<path d="M22.0391 32.0253H14.0391V38.5463H21.8374H26.1063C27.2828 38.5463 28.2239 37.5716 28.2239 36.3951V27.79H22.0391V32.0253Z" fill="#00AC47"/>
<path d="M28.2595 22.5796V32.6972L22.041 27.7897L28.2595 22.5796Z" fill="#00832D"/>
<path d="M119.889 35.6889H117.973V20.731H119.889L125.099 29.8402H125.166L130.376 20.731H132.292V35.6889H130.376V26.815L130.443 24.294H130.376L125.704 32.4957H124.561L119.889 24.294H119.821L119.889 26.815V35.6889Z" fill="#5F6368"/>
<path d="M139.589 36.025C138.076 36.025 136.833 35.5208 135.858 34.4787C134.883 33.4367 134.379 32.1594 134.379 30.5796C134.379 29.0334 134.849 27.7224 135.791 26.6804C136.732 25.6384 137.942 25.1006 139.421 25.1006C140.934 25.1006 142.144 25.6048 143.051 26.5796C143.959 27.5544 144.396 28.9325 144.396 30.714L144.362 30.9157H136.328C136.362 31.9241 136.698 32.7308 137.337 33.3359C137.976 33.9409 138.749 34.2434 139.623 34.2434C140.833 34.2434 141.807 33.6384 142.513 32.3947L144.228 33.235C143.757 34.109 143.118 34.7813 142.312 35.2518C141.539 35.7897 140.631 36.025 139.589 36.025ZM136.53 29.3359H142.379C142.312 28.63 142.043 28.025 141.505 27.588C141.001 27.1174 140.295 26.8821 139.421 26.8821C138.681 26.8821 138.076 27.1174 137.539 27.5544C137.034 27.9913 136.698 28.5964 136.53 29.3359Z" fill="#5F6368"/>
<path d="M150.882 36.025C149.369 36.025 148.126 35.5208 147.151 34.4787C146.176 33.4367 145.672 32.1594 145.672 30.5796C145.672 29.0334 146.142 27.7224 147.084 26.6804C148.025 25.6384 149.235 25.1006 150.714 25.1006C152.226 25.1006 153.437 25.6048 154.344 26.5796C155.252 27.5544 155.689 28.9325 155.689 30.714L155.655 30.9157H147.621C147.655 31.9241 147.991 32.7308 148.63 33.3359C149.269 33.9409 150.042 34.2434 150.916 34.2434C152.126 34.2434 153.1 33.6384 153.806 32.3947L155.521 33.235C155.05 34.109 154.411 34.7813 153.605 35.2518C152.865 35.7897 151.924 36.025 150.882 36.025ZM147.823 29.3359H153.705C153.638 28.63 153.369 28.025 152.832 27.588C152.327 27.1174 151.621 26.8821 150.748 26.8821C150.008 26.8821 149.403 27.1174 148.865 27.5544C148.327 27.9913 147.991 28.5964 147.823 29.3359Z" fill="#5F6368"/>
<path d="M161.268 35.8568C160.428 35.8568 159.722 35.5879 159.184 35.0837C158.647 34.5795 158.378 33.84 158.344 32.9324V27.2181H156.562V25.4366H158.344V22.3105H160.26V25.4366H162.781V27.1845H160.26V32.2937C160.26 32.966 160.394 33.4366 160.663 33.7055C160.932 33.9408 161.235 34.0753 161.571 34.0753C161.739 34.0753 161.873 34.0753 162.008 34.0416C162.176 34.008 162.31 33.9408 162.411 33.9072L163.016 35.6215C162.512 35.7559 161.907 35.8568 161.268 35.8568Z" fill="#5F6368"/>
<path d="M54.5784 29.3696V27.0839H62.2423C62.3095 27.4872 62.3767 27.9578 62.3767 28.4956C62.3767 30.2099 61.9062 32.3276 60.3935 33.8402C58.9146 35.3864 57.0322 36.1931 54.5448 36.1931C49.9398 36.1931 46.0742 32.4284 46.0742 27.8234C46.0742 23.2183 49.9398 19.4536 54.5448 19.4536C57.0994 19.4536 58.9146 20.462 60.2591 21.7729L58.6456 23.3864C57.6709 22.4788 56.3263 21.7393 54.5112 21.7393C51.1499 21.7393 48.528 24.462 48.528 27.8234C48.528 31.1847 51.1499 33.9074 54.5112 33.9074C56.6961 33.9074 57.9398 33.0334 58.7465 32.2267C59.3851 31.5881 59.8221 30.6469 59.9902 29.3696H54.5784Z" fill="#5F6368"/>
<path d="M74.0071 30.7815C74.0071 33.8739 71.587 36.1596 68.5954 36.1596C65.6038 36.1596 63.1836 33.8739 63.1836 30.7815C63.1836 27.6554 65.6038 25.4033 68.5954 25.4033C71.5533 25.4033 74.0071 27.6554 74.0071 30.7815ZM71.6206 30.7815C71.6206 28.8319 70.2088 27.521 68.5954 27.521C66.9483 27.521 65.5702 28.8319 65.5702 30.7815C65.5702 32.6974 66.9819 34.042 68.5954 34.042C70.2088 34.042 71.6206 32.6974 71.6206 30.7815Z" fill="#5F6368"/>
<path d="M85.7688 30.7815C85.7688 33.8739 83.3487 36.1596 80.3571 36.1596C77.3655 36.1596 74.9453 33.8739 74.9453 30.7815C74.9453 27.6554 77.3655 25.4033 80.3571 25.4033C83.3487 25.4033 85.7688 27.6554 85.7688 30.7815ZM83.4159 30.7815C83.4159 28.8319 82.0041 27.521 80.3907 27.521C78.7436 27.521 77.3655 28.8319 77.3655 30.7815C77.3655 32.6974 78.7772 34.042 80.3907 34.042C82.0041 34.042 83.4159 32.6974 83.4159 30.7815Z" fill="#5F6368"/>
<path d="M97.0982 25.7053V35.3859C97.0982 39.3523 94.7453 40.9994 91.989 40.9994C89.3671 40.9994 87.8209 39.2515 87.2159 37.8061L89.2663 36.9658C89.636 37.8397 90.5436 38.8817 91.989 38.8817C93.7705 38.8817 94.8797 37.7725 94.8797 35.7221V34.949H94.8125C94.2747 35.5876 93.2663 36.1591 91.989 36.1591C89.2999 36.1591 86.8125 33.8061 86.8125 30.7809C86.8125 27.7557 89.2663 25.3691 91.989 25.3691C93.2663 25.3691 94.3083 25.9406 94.8125 26.5792H94.8797V25.7053H97.0982ZM95.0142 30.7809C95.0142 28.8985 93.7369 27.4868 92.1234 27.4868C90.4764 27.4868 89.1318 28.8649 89.1318 30.7809C89.1318 32.6633 90.51 34.0414 92.1234 34.0414C93.7369 34.0414 95.0142 32.6633 95.0142 30.7809Z" fill="#5F6368"/>
<path d="M101.099 20.0586V35.8233H98.7461V20.0586H101.099Z" fill="#5F6368"/>
<path d="M110.24 32.563L112.089 33.7731C111.484 34.647 110.072 36.1596 107.618 36.1596C104.559 36.1596 102.273 33.8067 102.273 30.7815C102.273 27.5882 104.593 25.4033 107.349 25.4033C110.139 25.4033 111.517 27.6218 111.954 28.8319L112.189 29.4369L104.996 32.4285C105.534 33.5042 106.408 34.0756 107.618 34.0756C108.761 34.042 109.601 33.4369 110.24 32.563ZM104.559 30.6134L109.366 28.6302C109.097 27.9579 108.29 27.4874 107.383 27.4874C106.173 27.4537 104.526 28.5294 104.559 30.6134Z" fill="#5F6368"/>
</svg>
