<svg width="157" height="24" viewBox="0 0 157 24" fill="none" xmlns="http://www.w3.org/2000/svg">
<path d="M20.4199 15.025V14.2519V13.2099V8.26871V7.22669L21.2266 5.54602L25.2603 2.35274C25.7981 1.91577 26.6048 2.28552 26.6048 2.9914V18.3191C26.6048 19.025 25.7645 19.3948 25.2266 18.9578L20.4199 15.025Z" fill="#00AC47"/>
<path d="M7.04054 0L0.519531 6.52101H7.04054V0Z" fill="#EA4335"/>
<path d="M7.04054 6.55444H0.519531V15.0587H7.04054V6.55444Z" fill="#2684FC"/>
<path d="M0.519531 15.0254V19.3951C0.519531 20.6052 1.49432 21.58 2.7044 21.58H7.07415V15.059H0.519531V15.0254Z" fill="#0066DA"/>
<path d="M21.2575 2.15126C21.2575 0.974793 20.2828 0 19.1399 0H14.871H7.03906V6.52101H15.0391V10.7899L21.2575 10.5882V2.15126Z" fill="#FFBA00"/>
<path d="M15.0391 15.0253H7.03906V21.5463H14.8374H19.1063C20.2828 21.5463 21.2239 20.5716 21.2239 19.3951V10.79H15.0391V15.0253Z" fill="#00AC47"/>
<path d="M21.2595 5.57959V15.6972L15.041 10.7897L21.2595 5.57959Z" fill="#00832D"/>
<path d="M112.889 18.6889H110.973V3.73096H112.889L118.099 12.8402H118.166L123.376 3.73096H125.292V18.6889H123.376V9.81499L123.443 7.29398H123.376L118.704 15.4957H117.561L112.889 7.29398H112.821L112.889 9.81499V18.6889Z" fill="#5F6368"/>
<path d="M132.589 19.025C131.076 19.025 129.833 18.5208 128.858 17.4787C127.883 16.4367 127.379 15.1594 127.379 13.5796C127.379 12.0334 127.849 10.7224 128.791 9.68042C129.732 8.6384 130.942 8.10059 132.421 8.10059C133.934 8.10059 135.144 8.60479 136.051 9.57958C136.959 10.5544 137.396 11.9325 137.396 13.714L137.362 13.9157H129.328C129.362 14.9241 129.698 15.7308 130.337 16.3359C130.976 16.9409 131.749 17.2434 132.623 17.2434C133.833 17.2434 134.807 16.6384 135.513 15.3947L137.228 16.235C136.757 17.109 136.118 17.7813 135.312 18.2518C134.539 18.7897 133.631 19.025 132.589 19.025ZM129.53 12.3359H135.379C135.312 11.63 135.043 11.025 134.505 10.588C134.001 10.1174 133.295 9.8821 132.421 9.8821C131.681 9.8821 131.076 10.1174 130.539 10.5544C130.034 10.9913 129.698 11.5964 129.53 12.3359Z" fill="#5F6368"/>
<path d="M143.882 19.025C142.369 19.025 141.126 18.5208 140.151 17.4787C139.176 16.4367 138.672 15.1594 138.672 13.5796C138.672 12.0334 139.142 10.7224 140.084 9.68042C141.025 8.6384 142.235 8.10059 143.714 8.10059C145.226 8.10059 146.437 8.60479 147.344 9.57958C148.252 10.5544 148.689 11.9325 148.689 13.714L148.655 13.9157H140.621C140.655 14.9241 140.991 15.7308 141.63 16.3359C142.269 16.9409 143.042 17.2434 143.916 17.2434C145.126 17.2434 146.1 16.6384 146.806 15.3947L148.521 16.235C148.05 17.109 147.411 17.7813 146.605 18.2518C145.865 18.7897 144.924 19.025 143.882 19.025ZM140.823 12.3359H146.705C146.638 11.63 146.369 11.025 145.832 10.588C145.327 10.1174 144.621 9.8821 143.748 9.8821C143.008 9.8821 142.403 10.1174 141.865 10.5544C141.327 10.9913 140.991 11.5964 140.823 12.3359Z" fill="#5F6368"/>
<path d="M154.268 18.8568C153.428 18.8568 152.722 18.5879 152.184 18.0837C151.647 17.5795 151.378 16.84 151.344 15.9324V10.2181H149.562V8.4366H151.344V5.31055H153.26V8.4366H155.781V10.1845H153.26V15.2937C153.26 15.966 153.394 16.4366 153.663 16.7055C153.932 16.9408 154.235 17.0753 154.571 17.0753C154.739 17.0753 154.873 17.0753 155.008 17.0416C155.176 17.008 155.31 16.9408 155.411 16.9072L156.016 18.6215C155.512 18.7559 154.907 18.8568 154.268 18.8568Z" fill="#5F6368"/>
<path d="M47.5784 12.3696V10.0839H55.2423C55.3095 10.4872 55.3767 10.9578 55.3767 11.4956C55.3767 13.2099 54.9062 15.3276 53.3935 16.8402C51.9146 18.3864 50.0322 19.1931 47.5448 19.1931C42.9398 19.1931 39.0742 15.4284 39.0742 10.8234C39.0742 6.21832 42.9398 2.45361 47.5448 2.45361C50.0994 2.45361 51.9146 3.46202 53.2591 4.77294L51.6456 6.38638C50.6709 5.47882 49.3263 4.73933 47.5112 4.73933C44.1499 4.73933 41.528 7.46202 41.528 10.8234C41.528 14.1847 44.1499 16.9074 47.5112 16.9074C49.6961 16.9074 50.9398 16.0334 51.7465 15.2267C52.3851 14.5881 52.8221 13.6469 52.9902 12.3696H47.5784Z" fill="#5F6368"/>
<path d="M67.0071 13.7815C67.0071 16.8739 64.587 19.1596 61.5954 19.1596C58.6038 19.1596 56.1836 16.8739 56.1836 13.7815C56.1836 10.6554 58.6038 8.40332 61.5954 8.40332C64.5533 8.40332 67.0071 10.6554 67.0071 13.7815ZM64.6206 13.7815C64.6206 11.8319 63.2088 10.521 61.5954 10.521C59.9483 10.521 58.5702 11.8319 58.5702 13.7815C58.5702 15.6974 59.9819 17.042 61.5954 17.042C63.2088 17.042 64.6206 15.6974 64.6206 13.7815Z" fill="#5F6368"/>
<path d="M78.7688 13.7815C78.7688 16.8739 76.3487 19.1596 73.3571 19.1596C70.3655 19.1596 67.9453 16.8739 67.9453 13.7815C67.9453 10.6554 70.3655 8.40332 73.3571 8.40332C76.3487 8.40332 78.7688 10.6554 78.7688 13.7815ZM76.4159 13.7815C76.4159 11.8319 75.0041 10.521 73.3907 10.521C71.7436 10.521 70.3655 11.8319 70.3655 13.7815C70.3655 15.6974 71.7772 17.042 73.3907 17.042C75.0041 17.042 76.4159 15.6974 76.4159 13.7815Z" fill="#5F6368"/>
<path d="M90.0982 8.70528V18.3859C90.0982 22.3523 87.7453 23.9994 84.989 23.9994C82.3671 23.9994 80.8209 22.2515 80.2159 20.8061L82.2663 19.9658C82.636 20.8397 83.5436 21.8817 84.989 21.8817C86.7705 21.8817 87.8797 20.7725 87.8797 18.7221V17.949H87.8125C87.2747 18.5876 86.2663 19.1591 84.989 19.1591C82.2999 19.1591 79.8125 16.8061 79.8125 13.7809C79.8125 10.7557 82.2663 8.36914 84.989 8.36914C86.2663 8.36914 87.3083 8.94057 87.8125 9.57922H87.8797V8.70528H90.0982ZM88.0142 13.7809C88.0142 11.8985 86.7369 10.4868 85.1234 10.4868C83.4764 10.4868 82.1318 11.8649 82.1318 13.7809C82.1318 15.6633 83.51 17.0414 85.1234 17.0414C86.7369 17.0414 88.0142 15.6633 88.0142 13.7809Z" fill="#5F6368"/>
<path d="M94.099 3.05859V18.8233H91.7461V3.05859H94.099Z" fill="#5F6368"/>
<path d="M103.24 15.563L105.089 16.7731C104.484 17.647 103.072 19.1596 100.618 19.1596C97.5591 19.1596 95.2734 16.8067 95.2734 13.7815C95.2734 10.5882 97.5928 8.40332 100.349 8.40332C103.139 8.40332 104.517 10.6218 104.954 11.8319L105.189 12.4369L97.9961 15.4285C98.5339 16.5042 99.4079 17.0756 100.618 17.0756C101.761 17.042 102.601 16.4369 103.24 15.563ZM97.5591 13.6134L102.366 11.6302C102.097 10.9579 101.29 10.4874 100.383 10.4874C99.1726 10.4537 97.5255 11.5294 97.5591 13.6134Z" fill="#5F6368"/>
</svg>
