<svg width="135" height="28" viewBox="0 0 135 28" fill="none" xmlns="http://www.w3.org/2000/svg">
<g clip-path="url(#clip0_464_1706)">
<path d="M56.1468 5.59991V22.3999H53.1487V9.21658H53.1087L47.7521 22.3999H45.7533L40.2768 9.21658H40.2368V22.3999H37.4785V5.59991H41.7958L46.7527 18.0444H46.8327L52.0694 5.59991H56.1468ZM58.6253 6.88325C58.6253 6.41658 58.7852 6.02769 59.145 5.71658C59.5047 5.40547 59.9045 5.24991 60.3842 5.24991C60.9039 5.24991 61.3436 5.40547 61.6634 5.71658C61.9832 6.02769 62.1831 6.41658 62.1831 6.88325C62.1831 7.34991 62.0232 7.7388 61.6634 8.04991C61.3036 8.36102 60.9039 8.51658 60.3842 8.51658C59.8645 8.51658 59.4648 8.36102 59.145 8.04991C58.8252 7.69991 58.6253 7.31102 58.6253 6.88325ZM61.8633 10.3444V22.3999H58.9451V10.3444H61.8633ZM70.6977 20.3388C71.1375 20.3388 71.6172 20.261 72.1368 20.0277C72.6565 19.8332 73.1362 19.561 73.5759 19.2499V21.8944C73.0962 22.1666 72.5766 22.361 71.9769 22.4777C71.3773 22.5944 70.7377 22.6721 70.0182 22.6721C68.1793 22.6721 66.7002 22.1277 65.5809 20.9999C64.4217 19.8721 63.862 18.4332 63.862 16.7221C63.862 14.7777 64.4616 13.1832 65.6209 11.9388C66.7802 10.6944 68.4192 10.0721 70.5778 10.0721C71.1375 10.0721 71.6971 10.1499 72.2168 10.2666C72.7764 10.3832 73.2162 10.5777 73.536 10.7332V13.4555C73.0962 13.1444 72.6165 12.8721 72.1768 12.7166C71.6971 12.561 71.2174 12.4444 70.7377 12.4444C69.5784 12.4444 68.659 12.7944 67.9395 13.5332C67.2199 14.2721 66.9001 15.2444 66.9001 16.4888C66.9001 17.6944 67.2599 18.6666 67.9395 19.3277C68.619 19.9888 69.5385 20.3388 70.6977 20.3388ZM81.8508 10.1499C82.0906 10.1499 82.2905 10.1499 82.4904 10.1888C82.6902 10.2277 82.8501 10.2666 82.9701 10.3055V13.1832C82.8102 13.0666 82.6103 12.9499 82.2905 12.8721C81.9707 12.7944 81.6509 12.7166 81.2112 12.7166C80.4916 12.7166 79.892 13.0277 79.4123 13.611C78.9326 14.1944 78.6528 15.0888 78.6528 16.3332V22.3999H75.7346V10.3444H78.6528V12.2499H78.6927C78.9726 11.5888 79.3723 11.0832 79.892 10.6944C80.4516 10.3444 81.0912 10.1499 81.8508 10.1499ZM83.13 16.5666C83.13 14.5832 83.7296 12.9888 84.8489 11.8221C86.0082 10.6555 87.6072 10.0721 89.6459 10.0721C91.5647 10.0721 93.0837 10.6166 94.1631 11.7444C95.2424 12.8721 95.802 14.3888 95.802 16.2944C95.802 18.2388 95.2024 19.7944 94.0831 20.961C92.9238 22.1277 91.3648 22.711 89.3661 22.711C87.4473 22.711 85.9282 22.1666 84.8089 21.0777C83.6896 19.9499 83.13 18.4332 83.13 16.5666ZM86.1681 16.4499C86.1681 17.6944 86.4479 18.6666 87.0475 19.3277C87.6471 19.9888 88.4866 20.3388 89.5659 20.3388C90.6053 20.3388 91.4448 20.0277 92.0044 19.3277C92.5641 18.6666 92.8439 17.6944 92.8439 16.3721C92.8439 15.0888 92.5641 14.1166 92.0044 13.4166C91.4448 12.7555 90.6053 12.4055 89.6059 12.4055C88.5266 12.4055 87.7271 12.7555 87.1275 13.4555C86.4479 14.1944 86.1681 15.1666 86.1681 16.4499ZM100.159 13.5332C100.159 13.9221 100.279 14.2721 100.559 14.5055C100.839 14.7388 101.399 15.011 102.318 15.361C103.477 15.8277 104.317 16.3332 104.756 16.8777C105.236 17.461 105.476 18.1221 105.476 18.9388C105.476 20.0666 105.036 20.961 104.117 21.661C103.237 22.361 101.998 22.6721 100.479 22.6721C99.9594 22.6721 99.3998 22.5944 98.7602 22.4777C98.1206 22.361 97.6009 22.2055 97.1612 22.011V19.211C97.6809 19.561 98.2805 19.8721 98.8801 20.0666C99.4797 20.261 100.039 20.3777 100.559 20.3777C101.199 20.3777 101.718 20.2999 101.998 20.1055C102.318 19.911 102.478 19.6388 102.478 19.211C102.478 18.8221 102.318 18.511 101.998 18.1999C101.678 17.9277 101.039 17.6166 100.159 17.2666C99.08 16.8388 98.3205 16.3332 97.8807 15.7888C97.441 15.2444 97.2012 14.5444 97.2012 13.6888C97.2012 12.5999 97.6409 11.7055 98.5203 11.0055C99.3998 10.3055 100.559 9.95547 101.958 9.95547C102.398 9.95547 102.878 9.99436 103.397 10.111C103.917 10.2277 104.397 10.3444 104.756 10.461V13.2221C104.357 12.9888 103.917 12.7555 103.397 12.561C102.878 12.3666 102.358 12.2888 101.878 12.2888C101.319 12.2888 100.879 12.4055 100.599 12.5999C100.319 12.8721 100.159 13.1444 100.159 13.5332ZM106.715 16.5666C106.715 14.5832 107.315 12.9888 108.434 11.8221C109.593 10.6555 111.192 10.0721 113.231 10.0721C115.15 10.0721 116.669 10.6166 117.748 11.7444C118.828 12.8721 119.387 14.3888 119.387 16.2944C119.387 18.2388 118.788 19.7944 117.668 20.961C116.509 22.1277 114.95 22.711 112.951 22.711C111.033 22.711 109.513 22.1666 108.394 21.0777C107.315 19.9499 106.715 18.4332 106.715 16.5666ZM109.753 16.4499C109.753 17.6944 110.033 18.6666 110.633 19.3277C111.232 19.9888 112.072 20.3388 113.151 20.3388C114.191 20.3388 115.03 20.0277 115.59 19.3277C116.149 18.6666 116.429 17.6944 116.429 16.3721C116.429 15.0888 116.149 14.1166 115.59 13.4166C115.03 12.7555 114.191 12.4055 113.191 12.4055C112.112 12.4055 111.312 12.7555 110.713 13.4555C110.073 14.1944 109.753 15.1666 109.753 16.4499ZM129.101 12.6777H124.744V22.3999H121.786V12.6777H119.707V10.3444H121.786V8.67213C121.786 7.42769 122.226 6.37769 123.065 5.56102C123.904 4.74436 124.984 4.35547 126.303 4.35547C126.663 4.35547 126.983 4.39436 127.262 4.39436C127.542 4.39436 127.782 4.47214 127.982 4.54991V6.99991C127.902 6.96102 127.702 6.88325 127.462 6.80547C127.222 6.72769 126.943 6.6888 126.623 6.6888C126.023 6.6888 125.543 6.88325 125.224 7.23325C124.904 7.58325 124.744 8.16658 124.744 8.86658V10.3055H129.101V7.58325L132.019 6.72769V10.3055H134.978V12.6388H132.019V18.2777C132.019 19.0166 132.179 19.5221 132.419 19.8332C132.699 20.1444 133.139 20.2999 133.738 20.2999C133.898 20.2999 134.098 20.261 134.338 20.1832C134.578 20.1055 134.778 20.0277 134.938 19.911V22.2444C134.738 22.361 134.458 22.4388 134.018 22.5166C133.578 22.5944 133.179 22.6332 132.739 22.6332C131.5 22.6332 130.58 22.3221 129.981 21.6999C129.381 21.0777 129.061 20.1055 129.061 18.8221L129.101 12.6777Z" fill="#737373"/>
<path d="M0.0234375 0H13.6949V13.3H0.0234375V0Z" fill="#F25022"/>
<path d="M15.1328 0H28.8043V13.3H15.1328V0Z" fill="#7FBA00"/>
<path d="M0.0234375 14.7002H13.6949V28.0002H0.0234375V14.7002Z" fill="#00A4EF"/>
<path d="M15.1328 14.7H28.8043V28H15.1328V14.7Z" fill="#FFB900"/>
</g>
<defs>
<clipPath id="clip0_464_1706">
<rect width="135" height="28" fill="white"/>
</clipPath>
</defs>
</svg>
