<svg width="170" height="59" viewBox="0 0 170 59" fill="none" xmlns="http://www.w3.org/2000/svg">
<g clip-path="url(#clip0_464_1705)">
<path d="M75.4128 22.8001V37.2001H72.8811V25.9001H72.8473L68.3239 37.2001H66.6361L62.0114 25.9001H61.9776V37.2001H59.6484V22.8001H63.2942L67.48 33.4667H67.5475L71.9696 22.8001H75.4128ZM77.5057 23.9001C77.5057 23.5001 77.6407 23.1667 77.9446 22.9001C78.2484 22.6334 78.5859 22.5001 78.991 22.5001C79.4298 22.5001 79.8012 22.6334 80.0712 22.9001C80.3413 23.1667 80.5101 23.5001 80.5101 23.9001C80.5101 24.3001 80.375 24.6334 80.0712 24.9001C79.7674 25.1667 79.4298 25.3001 78.991 25.3001C78.5522 25.3001 78.2146 25.1667 77.9446 24.9001C77.6745 24.6001 77.5057 24.2667 77.5057 23.9001ZM80.24 26.8667V37.2001H77.7758V26.8667H80.24ZM87.7002 35.4334C88.0716 35.4334 88.4766 35.3667 88.9155 35.1667C89.3543 35.0001 89.7594 34.7667 90.1307 34.5001V36.7667C89.7256 37.0001 89.2868 37.1667 88.7804 37.2667C88.2741 37.3667 87.734 37.4334 87.1264 37.4334C85.5736 37.4334 84.3246 36.9667 83.3794 36.0001C82.4004 35.0334 81.9278 33.8001 81.9278 32.3334C81.9278 30.6667 82.4342 29.3001 83.4131 28.2334C84.3921 27.1667 85.7761 26.6334 87.599 26.6334C88.0716 26.6334 88.5441 26.7001 88.983 26.8001C89.4556 26.9001 89.8269 27.0667 90.097 27.2001V29.5334C89.7256 29.2667 89.3205 29.0334 88.9492 28.9001C88.5441 28.7667 88.1391 28.6667 87.734 28.6667C86.755 28.6667 85.9786 28.9667 85.371 29.6001C84.7634 30.2334 84.4933 31.0667 84.4933 32.1334C84.4933 33.1667 84.7972 34.0001 85.371 34.5667C85.9449 35.1334 86.7213 35.4334 87.7002 35.4334ZM97.1183 26.7001C97.3209 26.7001 97.4897 26.7001 97.6584 26.7334C97.8272 26.7667 97.9623 26.8001 98.0635 26.8334V29.3001C97.9285 29.2001 97.7597 29.1001 97.4897 29.0334C97.2196 28.9667 96.9496 28.9001 96.5782 28.9001C95.9706 28.9001 95.4643 29.1667 95.0592 29.6667C94.6541 30.1667 94.4178 30.9334 94.4178 32.0001V37.2001H91.9536V26.8667H94.4178V28.5001H94.4516C94.6879 27.9334 95.0254 27.5001 95.4643 27.1667C95.9369 26.8667 96.477 26.7001 97.1183 26.7001ZM98.1986 32.2001C98.1986 30.5001 98.7049 29.1334 99.6501 28.1334C100.629 27.1334 101.979 26.6334 103.701 26.6334C105.321 26.6334 106.604 27.1001 107.515 28.0667C108.427 29.0334 108.899 30.3334 108.899 31.9667C108.899 33.6334 108.393 34.9667 107.448 35.9667C106.469 36.9667 105.152 37.4667 103.465 37.4667C101.844 37.4667 100.562 37.0001 99.6163 36.0667C98.6711 35.1001 98.1986 33.8001 98.1986 32.2001ZM100.764 32.1001C100.764 33.1667 101 34.0001 101.507 34.5667C102.013 35.1334 102.722 35.4334 103.633 35.4334C104.511 35.4334 105.22 35.1667 105.693 34.5667C106.165 34.0001 106.401 33.1667 106.401 32.0334C106.401 30.9334 106.165 30.1001 105.693 29.5001C105.22 28.9334 104.511 28.6334 103.667 28.6334C102.756 28.6334 102.081 28.9334 101.574 29.5334C101 30.1667 100.764 31.0001 100.764 32.1001ZM112.579 29.6001C112.579 29.9334 112.68 30.2334 112.916 30.4334C113.153 30.6334 113.625 30.8667 114.402 31.1667C115.381 31.5667 116.09 32.0001 116.461 32.4667C116.866 32.9667 117.069 33.5334 117.069 34.2334C117.069 35.2001 116.697 35.9667 115.921 36.5667C115.178 37.1667 114.132 37.4334 112.849 37.4334C112.41 37.4334 111.938 37.3667 111.397 37.2667C110.857 37.1667 110.418 37.0334 110.047 36.8667V34.4667C110.486 34.7667 110.992 35.0334 111.499 35.2001C112.005 35.3667 112.478 35.4667 112.916 35.4667C113.457 35.4667 113.895 35.4001 114.132 35.2334C114.402 35.0667 114.537 34.8334 114.537 34.4667C114.537 34.1334 114.402 33.8667 114.132 33.6001C113.862 33.3667 113.322 33.1001 112.579 32.8001C111.667 32.4334 111.026 32.0001 110.655 31.5334C110.283 31.0667 110.081 30.4667 110.081 29.7334C110.081 28.8001 110.452 28.0334 111.195 27.4334C111.938 26.8334 112.916 26.5334 114.098 26.5334C114.469 26.5334 114.874 26.5667 115.313 26.6667C115.752 26.7667 116.157 26.8667 116.461 26.9667V29.3334C116.123 29.1334 115.752 28.9334 115.313 28.7667C114.874 28.6001 114.436 28.5334 114.03 28.5334C113.558 28.5334 113.187 28.6334 112.95 28.8001C112.714 29.0334 112.579 29.2667 112.579 29.6001ZM118.115 32.2001C118.115 30.5001 118.621 29.1334 119.567 28.1334C120.545 27.1334 121.896 26.6334 123.617 26.6334C125.238 26.6334 126.52 27.1001 127.432 28.0667C128.343 29.0334 128.816 30.3334 128.816 31.9667C128.816 33.6334 128.309 34.9667 127.364 35.9667C126.385 36.9667 125.069 37.4667 123.381 37.4667C121.761 37.4667 120.478 37.0001 119.533 36.0667C118.621 35.1001 118.115 33.8001 118.115 32.2001ZM120.68 32.1001C120.68 33.1667 120.917 34.0001 121.423 34.5667C121.929 35.1334 122.638 35.4334 123.55 35.4334C124.427 35.4334 125.136 35.1667 125.609 34.5667C126.082 34.0001 126.318 33.1667 126.318 32.0334C126.318 30.9334 126.082 30.1001 125.609 29.5001C125.136 28.9334 124.427 28.6334 123.584 28.6334C122.672 28.6334 121.997 28.9334 121.491 29.5334C120.951 30.1667 120.68 31.0001 120.68 32.1001ZM137.019 28.8667H133.339V37.2001H130.841V28.8667H129.086V26.8667H130.841V25.4334C130.841 24.3667 131.213 23.4667 131.921 22.7667C132.63 22.0667 133.542 21.7334 134.656 21.7334C134.96 21.7334 135.23 21.7667 135.466 21.7667C135.702 21.7667 135.905 21.8334 136.074 21.9001V24.0001C136.006 23.9667 135.837 23.9001 135.635 23.8334C135.432 23.7667 135.196 23.7334 134.926 23.7334C134.419 23.7334 134.014 23.9001 133.744 24.2001C133.474 24.5001 133.339 25.0001 133.339 25.6001V26.8334H137.019V24.5001L139.483 23.7667V26.8334H141.981V28.8334H139.483V33.6667C139.483 34.3001 139.618 34.7334 139.821 35.0001C140.057 35.2667 140.428 35.4001 140.934 35.4001C141.07 35.4001 141.238 35.3667 141.441 35.3001C141.643 35.2334 141.812 35.1667 141.947 35.0667V37.0667C141.778 37.1667 141.542 37.2334 141.171 37.3001C140.799 37.3667 140.462 37.4001 140.091 37.4001C139.044 37.4001 138.268 37.1334 137.761 36.6001C137.255 36.0667 136.985 35.2334 136.985 34.1334L137.019 28.8667Z" fill="#737373"/>
<path d="M28.02 18H39.5648V29.4H28.02V18Z" fill="#F25022"/>
<path d="M40.7788 18H52.3236V29.4H40.7788V18Z" fill="#7FBA00"/>
<path d="M28.02 30.6001H39.5648V42.0001H28.02V30.6001Z" fill="#00A4EF"/>
<path d="M40.7788 30.6001H52.3236V42.0001H40.7788V30.6001Z" fill="#FFB900"/>
</g>
<defs>
<clipPath id="clip0_464_1705">
<rect width="114" height="24" fill="white" transform="translate(28 18)"/>
</clipPath>
</defs>
</svg>
