<svg width="170" height="59" viewBox="0 0 170 59" fill="none" xmlns="http://www.w3.org/2000/svg">
<g clip-path="url(#clip0_464_1712)">
<mask id="mask0_464_1712" style="mask-type:luminance" maskUnits="userSpaceOnUse" x="6" y="-8" width="133" height="75">
<path d="M6.56152 -7.69141H138.915V66.6911H6.56152V-7.69141Z" fill="white"/>
</mask>
<g mask="url(#mask0_464_1712)">
<mask id="mask1_464_1712" style="mask-type:luminance" maskUnits="userSpaceOnUse" x="33" y="16" width="28" height="27">
<path d="M47.1944 43C54.6502 43 60.6944 36.9559 60.6944 29.5C60.6944 22.0442 54.6502 16 47.1944 16C39.7385 16 33.6943 22.0442 33.6943 29.5C33.6943 36.9559 39.7385 43 47.1944 43Z" fill="white"/>
</mask>
<g mask="url(#mask1_464_1712)">
<path d="M33.0308 15.3384H61.3543V43.662H33.0308V15.3384Z" fill="#E5E5E4"/>
</g>
<mask id="mask2_464_1712" style="mask-type:luminance" maskUnits="userSpaceOnUse" x="35" y="17" width="25" height="25">
<path d="M47.1946 41.6765C53.9194 41.6765 59.371 36.2249 59.371 29.5C59.371 22.7751 53.9194 17.3235 47.1946 17.3235C40.4697 17.3235 35.0181 22.7751 35.0181 29.5C35.0181 36.2249 40.4697 41.6765 47.1946 41.6765Z" fill="white"/>
</mask>
<g mask="url(#mask2_464_1712)">
<path d="M34.3545 16.6619H60.031V42.3384H34.3545V16.6619Z" fill="#4A8CFF"/>
</g>
<mask id="mask3_464_1712" style="mask-type:luminance" maskUnits="userSpaceOnUse" x="39" y="25" width="16" height="9">
<path d="M50.9005 27.9197L54.3417 25.405C54.6421 25.1601 54.8711 25.217 54.8711 25.6697V33.3382C54.8711 33.8465 54.5852 33.7882 54.3417 33.6029L50.9005 31.0882V27.9197ZM39.2534 25.6882V31.4059C39.2566 32.0266 39.5061 32.6207 39.9471 33.0575C40.3882 33.4943 40.9846 33.7381 41.6053 33.7353H49.9436C50.0564 33.7356 50.1647 33.6913 50.2449 33.6119C50.325 33.5325 50.3704 33.4246 50.3711 33.3118V27.5941C50.3679 26.9734 50.1184 26.3793 49.6774 25.9425C49.2363 25.5057 48.6399 25.2619 48.0192 25.2647H39.6809C39.5681 25.2643 39.4598 25.3087 39.3796 25.3881C39.2995 25.4675 39.2541 25.5754 39.2534 25.6882Z" fill="white"/>
</mask>
<g mask="url(#mask3_464_1712)">
<path d="M38.5898 24.603H55.531V34.3972H38.5898V24.603Z" fill="white"/>
</g>
</g>
</g>
<path fill-rule="evenodd" clip-rule="evenodd" d="M123.748 26.459C124.007 26.9054 124.091 27.4125 124.119 27.9831L124.156 28.7425V34.0596L124.193 34.8217C124.267 36.0645 125.184 36.9837 126.437 37.0616L127.195 37.0986V28.7438L127.232 27.9844C127.264 27.4218 127.347 26.9041 127.61 26.4537C128.452 25.0036 130.311 24.5109 131.762 25.3509C132.222 25.6177 132.603 26.0007 132.87 26.4629C133.128 26.9093 133.21 27.4257 133.241 27.9844L133.278 28.7425V34.061L133.315 34.823C133.393 36.0711 134.303 36.9903 135.56 37.0629L136.316 37.0999V27.9857C136.316 24.6285 133.596 21.9078 130.239 21.9078C128.495 21.9065 126.832 22.6567 125.68 23.9655C124.527 22.6553 122.866 21.9052 121.121 21.9052C119.86 21.9052 118.688 22.2882 117.718 22.9499C117.125 22.2882 115.803 21.9052 115.041 21.9052V37.0999L115.8 37.0629C117.07 36.9797 117.991 36.0843 118.04 34.823L118.081 34.061V28.7438L118.118 27.9844C118.149 27.4099 118.229 26.9067 118.489 26.4577C119.033 25.52 120.035 24.9441 121.12 24.9441C122.201 24.9428 123.205 25.5213 123.748 26.459ZM71.7306 37.0616L72.49 37.0986H83.8851L83.8481 36.3405C83.7438 35.0924 82.8602 34.1785 81.6082 34.0966L80.8488 34.0596H74.0115L83.1257 24.9415L83.0887 24.1834C83.0293 22.9221 82.1087 22.0108 80.8488 21.9395L80.0894 21.9039L68.6943 21.8999L68.7313 22.6593C68.8317 23.8968 69.7284 24.8292 70.9712 24.8992L71.7333 24.9375H78.5693L69.4537 34.0583L69.4907 34.8177C69.5647 36.0737 70.4694 36.981 71.7306 37.0616ZM112.054 24.1279C115.021 27.0942 115.022 31.9056 112.054 34.8706C109.084 37.8369 104.275 37.8369 101.305 34.8706C98.3389 31.9043 98.3389 27.0916 101.305 24.1253C102.73 22.7003 104.66 21.8999 106.674 21.8999C108.695 21.9012 110.629 22.7016 112.054 24.1279ZM109.906 26.2794C111.685 28.0597 111.685 30.9454 109.906 32.7271C108.125 34.506 105.238 34.506 103.458 32.7271C101.679 30.9467 101.679 28.0597 103.458 26.2794C105.238 24.5004 108.125 24.5004 109.906 26.2794ZM90.7316 21.9039C92.7457 21.9039 94.6779 22.7055 96.1003 24.1293C99.0679 27.0956 99.0679 31.9082 96.1003 34.8719C93.13 37.8382 88.3213 37.8382 85.3511 34.8719C82.3848 31.9056 82.3848 27.0929 85.3511 24.1266C86.7761 22.7016 88.7057 21.9012 90.7198 21.9012H90.7303V21.9039H90.7316ZM93.9489 26.2767C95.7292 28.057 95.7292 30.9441 93.9489 32.7257C92.1686 34.5047 89.2815 34.5047 87.5012 32.7257C85.7222 30.9454 85.7222 28.0584 87.5012 26.278C89.2841 24.4991 92.1686 24.4991 93.9489 26.2767Z" fill="#2D8CFF"/>
<defs>
<clipPath id="clip0_464_1712">
<rect width="27" height="27" fill="white" transform="translate(33.6943 16)"/>
</clipPath>
</defs>
</svg>
