<svg width="126" height="39" viewBox="0 0 126 39" fill="none" xmlns="http://www.w3.org/2000/svg">
<g filter="url(#filter0_d_464_1713)">
<g clip-path="url(#clip0_464_1713)">
<mask id="mask0_464_1713" style="mask-type:luminance" maskUnits="userSpaceOnUse" x="-28" y="-28" width="153" height="87">
<path d="M-27.1523 -27.2012H124.809V58.2009H-27.1523V-27.2012Z" fill="white"/>
</mask>
<g mask="url(#mask0_464_1713)">
<mask id="mask1_464_1713" style="mask-type:luminance" maskUnits="userSpaceOnUse" x="4" y="0" width="31" height="31">
<path d="M19.5 31.0001C28.0605 31.0001 35.0001 24.0605 35.0001 15.5C35.0001 6.9396 28.0605 0 19.5 0C10.9396 0 4 6.9396 4 15.5C4 24.0605 10.9396 31.0001 19.5 31.0001Z" fill="white"/>
</mask>
<g mask="url(#mask1_464_1713)">
<path d="M3.23828 -0.759766H35.7579V31.7599H3.23828V-0.759766Z" fill="#E5E5E4"/>
</g>
<mask id="mask2_464_1713" style="mask-type:luminance" maskUnits="userSpaceOnUse" x="4" y="0" width="31" height="31">
<path d="M19.5008 30.6959C27.8934 30.6959 34.6969 23.8924 34.6969 15.4998C34.6969 7.10724 27.8934 0.303711 19.5008 0.303711C11.1082 0.303711 4.30469 7.10724 4.30469 15.4998C4.30469 23.8924 11.1082 30.6959 19.5008 30.6959Z" fill="white"/>
</mask>
<g mask="url(#mask2_464_1713)">
<path d="M3.54297 -0.456055H35.4548V31.4558H3.54297V-0.456055Z" fill="white"/>
</g>
<mask id="mask3_464_1713" style="mask-type:luminance" maskUnits="userSpaceOnUse" x="5" y="1" width="29" height="29">
<path d="M19.4999 29.4804C27.2211 29.4804 33.4804 23.2211 33.4804 15.4999C33.4804 7.77878 27.2211 1.51953 19.4999 1.51953C11.7788 1.51953 5.51953 7.77878 5.51953 15.4999C5.51953 23.2211 11.7788 29.4804 19.4999 29.4804Z" fill="white"/>
</mask>
<g mask="url(#mask3_464_1713)">
<path d="M4.75781 0.759766H34.2383V30.2402H4.75781V0.759766Z" fill="#4A8CFF"/>
</g>
<mask id="mask4_464_1713" style="mask-type:luminance" maskUnits="userSpaceOnUse" x="10" y="10" width="19" height="11">
<path d="M23.7554 13.6855L27.7064 10.7983C28.0513 10.5171 28.3142 10.5825 28.3142 11.1022V19.9068C28.3142 20.4903 27.986 20.4235 27.7064 20.2107L23.7554 17.3235V13.6855ZM10.3828 11.1235V17.6882C10.3864 18.4009 10.6729 19.083 11.1793 19.5845C11.6857 20.086 12.3705 20.3659 13.0832 20.3627H22.6567C22.7862 20.3631 22.9106 20.3121 23.0026 20.221C23.0946 20.1298 23.1467 20.0059 23.1475 19.8764V13.3117C23.1439 12.599 22.8574 11.9169 22.3511 11.4154C21.8447 10.9139 21.1599 10.634 20.4472 10.6372H10.8736C10.7441 10.6368 10.6197 10.6877 10.5277 10.7789C10.4357 10.87 10.3836 10.994 10.3828 11.1235Z" fill="white"/>
</mask>
<g mask="url(#mask4_464_1713)">
<path d="M9.62109 9.87744H29.0721V21.1226H9.62109V9.87744Z" fill="white"/>
</g>
</g>
</g>
<path fill-rule="evenodd" clip-rule="evenodd" d="M107.326 11.947C107.628 12.4686 107.727 13.0612 107.759 13.7278L107.802 14.6151V20.8278L107.846 21.7181C107.932 23.1702 109.003 24.2443 110.467 24.3353L111.353 24.3785V14.6166L111.396 13.7293C111.433 13.072 111.531 12.4671 111.838 11.9408C112.822 10.2465 114.993 9.67089 116.689 10.6523C117.226 10.964 117.672 11.4115 117.984 11.9516C118.285 12.4732 118.381 13.0766 118.418 13.7293L118.461 14.6151V20.8293L118.504 21.7197C118.595 23.1779 119.658 24.252 121.127 24.3368L122.01 24.38V13.7309C122.01 9.80823 118.833 6.62938 114.91 6.62938C112.872 6.62783 110.929 7.50433 109.583 9.03358C108.236 7.50279 106.295 6.62629 104.256 6.62629C102.783 6.62629 101.414 7.0738 100.28 7.84691C99.5867 7.0738 98.042 6.62629 97.1517 6.62629V24.38L98.039 24.3368C99.5235 24.2396 100.599 23.1934 100.656 21.7197L100.704 20.8293V14.6166L100.747 13.7293C100.784 13.0581 100.877 12.4701 101.181 11.9455C101.817 10.8498 102.988 10.177 104.255 10.177C105.519 10.1755 106.691 10.8514 107.326 11.947ZM46.5477 24.3353L47.435 24.3785H60.7491L60.7059 23.4927C60.584 22.0345 59.5517 20.9666 58.0888 20.871L57.2015 20.8278H49.2127L59.8618 10.174L59.8186 9.2882C59.7492 7.8145 58.6736 6.74974 57.2015 6.66641L56.3142 6.62475L43 6.62012L43.0432 7.50742C43.1605 8.95334 44.2083 10.0428 45.6604 10.1246L46.5508 10.1693H54.538L43.8873 20.8262L43.9305 21.7135C44.0169 23.181 45.074 24.2412 46.5477 24.3353ZM93.6626 9.22339C97.1285 12.6893 97.1301 18.3109 93.6626 21.7752C90.1921 25.2411 84.5736 25.2411 81.1031 21.7752C77.6372 18.3094 77.6372 12.6862 81.1031 9.2203C82.7681 7.55526 85.0226 6.62012 87.3759 6.62012C89.7369 6.62166 91.9976 7.5568 93.6626 9.22339ZM91.152 11.7372C93.2306 13.8173 93.2306 17.189 91.152 19.2707C89.0718 21.3493 85.6985 21.3493 83.6184 19.2707C81.5398 17.1906 81.5398 13.8173 83.6184 11.7372C85.6985 9.65855 89.0718 9.65855 91.152 11.7372ZM68.7487 6.62475C71.102 6.62475 73.3596 7.56143 75.0216 9.22493C78.489 12.6908 78.489 18.314 75.0216 21.7768C71.5511 25.2427 65.9325 25.2427 62.462 21.7768C58.9961 18.3109 58.9961 12.6877 62.462 9.22184C64.127 7.5568 66.3816 6.62166 68.7348 6.62166H68.7472V6.62475H68.7487ZM72.5078 11.7341C74.588 13.8142 74.588 17.1875 72.5078 19.2692C70.4277 21.3478 67.0544 21.3478 64.9742 19.2692C62.8956 17.189 62.8956 13.8158 64.9742 11.7356C67.0575 9.65701 70.4277 9.657 72.5078 11.7341Z" fill="#2D8CFF"/>
</g>
<defs>
<filter id="filter0_d_464_1713" x="0" y="0" width="126.01" height="39" filterUnits="userSpaceOnUse" color-interpolation-filters="sRGB">
<feFlood flood-opacity="0" result="BackgroundImageFix"/>
<feColorMatrix in="SourceAlpha" type="matrix" values="0 0 0 0 0 0 0 0 0 0 0 0 0 0 0 0 0 0 127 0" result="hardAlpha"/>
<feOffset dy="4"/>
<feGaussianBlur stdDeviation="2"/>
<feComposite in2="hardAlpha" operator="out"/>
<feColorMatrix type="matrix" values="0 0 0 0 0 0 0 0 0 0 0 0 0 0 0 0 0 0 0.25 0"/>
<feBlend mode="normal" in2="BackgroundImageFix" result="effect1_dropShadow_464_1713"/>
<feBlend mode="normal" in="SourceGraphic" in2="effect1_dropShadow_464_1713" result="shape"/>
</filter>
<clipPath id="clip0_464_1713">
<rect width="31" height="31" fill="white" transform="translate(4)"/>
</clipPath>
</defs>
</svg>
