<svg width="161" height="48" viewBox="0 0 161 48" fill="none" xmlns="http://www.w3.org/2000/svg">
<path d="M22.25 2C10.0997 2 0.25 11.8497 0.25 24C0.25 36.1503 10.0997 46 22.25 46C33.151 46 42.2002 38.0716 43.9458 27.6667H43.7879C42.1598 33.9925 36.4174 38.6667 29.5833 38.6667C21.4832 38.6667 14.9167 32.1002 14.9167 24C14.9167 15.8998 21.4832 9.33333 29.5833 9.33333C36.4174 9.33333 42.1598 14.0075 43.7879 20.3333H43.9458C42.2002 9.92838 33.151 2 22.25 2Z" fill="#84ADFF"/>
<path d="M0.25 24C0.25 11.8497 10.0997 2 22.25 2C33.151 2 42.2002 9.92838 43.9458 20.3333H29.1213C27.4931 14.0075 21.7507 9.33333 14.9167 9.33333C6.81649 9.33333 0.25 15.8998 0.25 24Z" fill="#1E69FF"/>
<path d="M0.25 24C0.25 36.1503 10.0997 46 22.25 46C33.151 46 42.2002 38.0716 43.9458 27.6667H29.1213C27.4931 33.9925 21.7507 38.6667 14.9167 38.6667C6.81649 38.6667 0.25 32.1002 0.25 24Z" fill="#1E69FF"/>
<path d="M75.6896 20.5071C75.0632 15.983 71.5831 13.358 67.0689 13.358C61.7493 13.358 57.7422 17.2358 57.7422 23.8182C57.7422 30.3906 61.6996 34.2784 67.0689 34.2784C71.9112 34.2784 75.1229 31.1463 75.6896 27.2585L71.9709 27.2387C71.5035 29.625 69.5547 30.9673 67.1186 30.9673C63.8175 30.9673 61.451 28.4915 61.451 23.8182C61.451 19.2244 63.7976 16.6691 67.1285 16.6691C69.6044 16.6691 71.5433 18.071 71.9709 20.5071H75.6896Z" fill="#003AAF"/>
<path d="M83.3036 34.3083C85.6999 34.3083 87.1317 33.1847 87.788 31.902H87.9073V34H91.3675V23.7784C91.3675 19.7415 88.0763 18.5284 85.163 18.5284C81.9513 18.5284 79.4854 19.9602 78.69 22.7443L82.0508 23.2216C82.4087 22.1776 83.4229 21.2827 85.1829 21.2827C86.8533 21.2827 87.7681 22.1378 87.7681 23.6392V23.6989C87.7681 24.733 86.6843 24.7827 83.9897 25.071C81.0266 25.3892 78.1928 26.2742 78.1928 29.7145C78.1928 32.7173 80.3903 34.3083 83.3036 34.3083ZM84.2383 31.6634C82.7369 31.6634 81.663 30.9773 81.663 29.6548C81.663 28.2727 82.8661 27.696 84.4769 27.4673C85.4215 27.3381 87.3107 27.0994 87.778 26.7216V28.5213C87.778 30.2216 86.4059 31.6634 84.2383 31.6634Z" fill="#003AAF"/>
<path d="M102.613 18.7273H99.6005V15.0682H96.0011V18.7273H93.8334V21.5114H96.0011V30.0029C95.9812 32.8764 98.0692 34.2884 100.774 34.2088C101.798 34.179 102.504 33.9801 102.892 33.8509L102.285 31.037C102.086 31.0867 101.679 31.1762 101.231 31.1762C100.326 31.1762 99.6005 30.858 99.6005 29.4063V21.5114H102.613V18.7273Z" fill="#003AAF"/>
<path d="M110.018 34.3083C112.415 34.3083 113.847 33.1847 114.503 31.902H114.622V34H118.082V23.7784C118.082 19.7415 114.791 18.5284 111.878 18.5284C108.666 18.5284 106.2 19.9602 105.405 22.7443L108.766 23.2216C109.124 22.1776 110.138 21.2827 111.898 21.2827C113.568 21.2827 114.483 22.1378 114.483 23.6392V23.6989C114.483 24.733 113.399 24.7827 110.705 25.071C107.741 25.3892 104.908 26.2742 104.908 29.7145C104.908 32.7173 107.105 34.3083 110.018 34.3083ZM110.953 31.6634C109.452 31.6634 108.378 30.9773 108.378 29.6548C108.378 28.2727 109.581 27.696 111.192 27.4673C112.136 27.3381 114.026 27.0994 114.493 26.7216V28.5213C114.493 30.2216 113.121 31.6634 110.953 31.6634Z" fill="#003AAF"/>
<path d="M125.301 13.6364H121.702V34H125.301V13.6364Z" fill="#003AAF"/>
<path d="M135.664 34.2983C140.139 34.2983 142.983 31.1463 142.983 26.4233C142.983 21.6904 140.139 18.5284 135.664 18.5284C131.19 18.5284 128.346 21.6904 128.346 26.4233C128.346 31.1463 131.19 34.2983 135.664 34.2983ZM135.684 31.4148C133.208 31.4148 131.995 29.2074 131.995 26.4134C131.995 23.6193 133.208 21.3821 135.684 21.3821C138.12 21.3821 139.333 23.6193 139.333 26.4134C139.333 29.2074 138.12 31.4148 135.684 31.4148Z" fill="#003AAF"/>
<path d="M152.68 40.0455C156.806 40.0455 159.849 38.1563 159.849 34.2486V18.7273H156.299V21.2529H156.1C155.553 20.1492 154.41 18.5284 151.715 18.5284C148.185 18.5284 145.411 21.2926 145.411 26.3139C145.411 31.2955 148.185 33.7813 151.705 33.7813C154.32 33.7813 155.543 32.3793 156.1 31.2557H156.279V34.1492C156.279 36.3963 154.788 37.321 152.739 37.321C150.572 37.321 149.617 36.2969 149.18 35.402L145.938 36.1875C146.594 38.3253 148.792 40.0455 152.68 40.0455ZM152.709 30.9574C150.333 30.9574 149.08 29.108 149.08 26.2941C149.08 23.5199 150.313 21.4816 152.709 21.4816C155.026 21.4816 156.299 23.4006 156.299 26.2941C156.299 29.2074 155.006 30.9574 152.709 30.9574Z" fill="#003AAF"/>
</svg>
