<svg width="184" height="48" viewBox="0 0 184 48" fill="none" xmlns="http://www.w3.org/2000/svg">
<path d="M16.2151 33.4286C24.8939 33.4286 31.9294 26.393 31.9294 17.7143C31.9294 16.7307 31.839 15.7682 31.6661 14.8347C30.7326 14.6618 29.7701 14.5714 28.7865 14.5714C20.1078 14.5714 13.0723 21.6069 13.0723 30.2857C13.0723 31.2693 13.1626 32.2318 13.3355 33.1653C14.269 33.3382 15.2315 33.4286 16.2151 33.4286Z" fill="#1E69FF"/>
<path fill-rule="evenodd" clip-rule="evenodd" d="M13.3347 33.1653C6.03118 31.8127 0.5 25.4095 0.5 17.7143C0.5 9.03553 7.53553 2 16.2143 2C23.9095 2 30.3128 7.53118 31.6653 14.8347C30.7318 14.6618 29.7693 14.5714 28.7857 14.5714C20.107 14.5714 13.0714 21.607 13.0714 30.2857C13.0714 31.2693 13.1618 32.2318 13.3347 33.1653Z" fill="#1E69FF"/>
<path fill-rule="evenodd" clip-rule="evenodd" d="M16.2136 33.4285C24.8924 33.4285 31.9279 26.393 31.9279 17.7142C31.9279 16.7306 31.8375 15.7681 31.6646 14.8346C38.9681 16.1872 44.4993 22.5905 44.4993 30.2856C44.4993 38.9644 37.4638 45.9999 28.785 45.9999C21.0899 45.9999 14.6866 40.4687 13.334 33.1652C14.2675 33.3381 15.23 33.4285 16.2136 33.4285Z" fill="#84ADFF"/>
<path d="M74.7284 28.904C74.1684 30.7146 73.1884 32.068 71.7884 32.964C70.3884 33.8413 68.755 34.28 66.8884 34.28C65.059 34.28 63.4724 33.8973 62.1284 33.132C60.803 32.3666 59.7764 31.2746 59.0484 29.856C58.339 28.4373 57.9844 26.7386 57.9844 24.76C57.9844 22.7813 58.3484 21.0826 59.0764 19.664C59.8044 18.2453 60.831 17.1533 62.1564 16.388C63.4817 15.6226 65.0404 15.24 66.8324 15.24C68.7177 15.24 70.3324 15.6413 71.6764 16.444C73.039 17.228 73.9724 18.4226 74.4764 20.028L70.9764 21.512C70.659 20.392 70.1737 19.5986 69.5204 19.132C68.867 18.6466 68.027 18.404 67.0004 18.404C65.4697 18.404 64.247 18.9546 63.3324 20.056C62.4364 21.1386 61.9884 22.7066 61.9884 24.76C61.9884 26.7946 62.4177 28.3626 63.2764 29.464C64.135 30.5653 65.3764 31.116 67.0004 31.116C68.0084 31.116 68.8764 30.8453 69.6044 30.304C70.351 29.7627 70.8737 28.9413 71.1724 27.84L74.7284 28.904Z" fill="#003AAF"/>
<path d="M79.5617 17.984C77.975 17.984 77.1817 17.3026 77.1817 15.94C77.1817 14.5586 77.975 13.868 79.5617 13.868C81.1483 13.868 81.9417 14.5586 81.9417 15.94C81.9417 17.3026 81.1483 17.984 79.5617 17.984ZM81.4657 20V34H77.6297V20H81.4657Z" fill="#003AAF"/>
<path d="M85.532 34V20H88.864L89.116 22.744C89.4707 21.792 90.0027 21.0546 90.712 20.532C91.44 19.9906 92.3547 19.72 93.456 19.72C94.1093 19.72 94.6133 19.8226 94.968 20.028L94.52 23.248C94.3333 23.192 94.1 23.1453 93.82 23.108C93.5587 23.052 93.2133 23.024 92.784 23.024C92.2053 23.024 91.6547 23.164 91.132 23.444C90.628 23.7053 90.208 24.116 89.872 24.676C89.536 25.2173 89.368 25.908 89.368 26.748V34H85.532Z" fill="#003AAF"/>
<path d="M103.427 19.72C105.294 19.72 106.74 20.1213 107.767 20.924C108.812 21.7266 109.503 22.6973 109.839 23.836L106.255 25.124C105.882 23.4253 104.958 22.576 103.483 22.576C102.419 22.576 101.588 22.9493 100.991 23.696C100.412 24.4426 100.123 25.5533 100.123 27.028C100.123 28.5213 100.422 29.632 101.019 30.36C101.635 31.0693 102.466 31.424 103.511 31.424C105.135 31.424 106.106 30.5933 106.423 28.932L109.895 30.052C109.578 31.3026 108.868 32.32 107.767 33.104C106.684 33.888 105.275 34.28 103.539 34.28C102.083 34.28 100.804 33.9907 99.7031 33.412C98.6204 32.8333 97.7804 32.0026 97.1831 30.92C96.5857 29.8373 96.2871 28.5306 96.2871 27C96.2871 25.4693 96.5857 24.1626 97.1831 23.08C97.7991 21.9973 98.6391 21.1666 99.7031 20.588C100.786 20.0093 102.027 19.72 103.427 19.72Z" fill="#003AAF"/>
<path d="M119.26 19.72C120.66 19.72 121.901 20.0093 122.984 20.588C124.066 21.1666 124.906 21.9973 125.504 23.08C126.12 24.1626 126.428 25.4693 126.428 27C126.428 28.5306 126.12 29.8373 125.504 30.92C124.906 32.0026 124.066 32.8333 122.984 33.412C121.901 33.9907 120.66 34.28 119.26 34.28C117.841 34.28 116.59 33.9907 115.508 33.412C114.444 32.8333 113.604 32.0026 112.988 30.92C112.39 29.8373 112.092 28.5306 112.092 27C112.092 25.4693 112.39 24.1626 112.988 23.08C113.604 21.9973 114.444 21.1666 115.508 20.588C116.59 20.0093 117.841 19.72 119.26 19.72ZM119.26 22.576C118.214 22.576 117.393 22.9493 116.796 23.696C116.217 24.424 115.928 25.5253 115.928 27C115.928 28.4746 116.217 29.5853 116.796 30.332C117.393 31.06 118.214 31.424 119.26 31.424C120.286 31.424 121.089 31.06 121.668 30.332C122.265 29.5853 122.564 28.4746 122.564 27C122.564 25.5253 122.265 24.424 121.668 23.696C121.089 22.9493 120.286 22.576 119.26 22.576Z" fill="#003AAF"/>
<path d="M136.021 19.72C137.421 19.72 138.663 20.0093 139.745 20.588C140.828 21.1666 141.668 21.9973 142.265 23.08C142.881 24.1626 143.189 25.4693 143.189 27C143.189 28.5306 142.881 29.8373 142.265 30.92C141.668 32.0026 140.828 32.8333 139.745 33.412C138.663 33.9907 137.421 34.28 136.021 34.28C134.603 34.28 133.352 33.9907 132.269 33.412C131.205 32.8333 130.365 32.0026 129.749 30.92C129.152 29.8373 128.853 28.5306 128.853 27C128.853 25.4693 129.152 24.1626 129.749 23.08C130.365 21.9973 131.205 21.1666 132.269 20.588C133.352 20.0093 134.603 19.72 136.021 19.72ZM136.021 22.576C134.976 22.576 134.155 22.9493 133.557 23.696C132.979 24.424 132.689 25.5253 132.689 27C132.689 28.4746 132.979 29.5853 133.557 30.332C134.155 31.06 134.976 31.424 136.021 31.424C137.048 31.424 137.851 31.06 138.429 30.332C139.027 29.5853 139.325 28.4746 139.325 27C139.325 25.5253 139.027 24.424 138.429 23.696C137.851 22.9493 137.048 22.576 136.021 22.576Z" fill="#003AAF"/>
<path d="M150.179 13.868V29.688C150.179 30.3413 150.291 30.7986 150.515 31.06C150.739 31.3213 151.112 31.452 151.635 31.452C151.952 31.452 152.214 31.4333 152.419 31.396C152.625 31.3586 152.886 31.284 153.203 31.172L152.867 33.692C152.55 33.8786 152.148 34.0186 151.663 34.112C151.196 34.224 150.73 34.28 150.263 34.28C148.9 34.28 147.902 33.9533 147.267 33.3C146.651 32.628 146.343 31.564 146.343 30.108V13.868H150.179Z" fill="#003AAF"/>
<path d="M161.837 34.28C159.634 34.28 157.87 33.6453 156.545 32.376C155.219 31.088 154.557 29.296 154.557 27C154.557 25.4693 154.855 24.1626 155.453 23.08C156.05 21.9973 156.881 21.1666 157.945 20.588C159.027 20.0093 160.259 19.72 161.641 19.72C163.059 19.72 164.263 20.0093 165.253 20.588C166.242 21.148 166.998 21.9226 167.521 22.912C168.043 23.8826 168.305 24.9933 168.305 26.244C168.305 26.6173 168.295 26.972 168.277 27.308C168.258 27.644 168.23 27.9426 168.193 28.204H158.309C158.458 29.2866 158.831 30.0986 159.429 30.64C160.045 31.1626 160.838 31.424 161.809 31.424C162.63 31.424 163.293 31.2653 163.797 30.948C164.301 30.6306 164.693 30.192 164.973 29.632L168.025 30.808C167.577 31.9093 166.793 32.768 165.673 33.384C164.553 33.9813 163.274 34.28 161.837 34.28ZM161.613 22.548C159.802 22.548 158.71 23.5466 158.337 25.544H164.637C164.525 24.5733 164.207 23.836 163.685 23.332C163.181 22.8093 162.49 22.548 161.613 22.548Z" fill="#003AAF"/>
<path d="M177.155 34.28C175.737 34.28 174.439 34.028 173.263 33.524C172.106 33.02 171.163 32.3106 170.435 31.396L172.647 29.156C173.095 29.828 173.693 30.3787 174.439 30.808C175.186 31.2373 176.073 31.452 177.099 31.452C177.827 31.452 178.406 31.3493 178.835 31.144C179.283 30.92 179.507 30.5746 179.507 30.108C179.507 29.8093 179.405 29.5573 179.199 29.352C178.994 29.128 178.583 28.9506 177.967 28.82L175.503 28.316C173.879 27.98 172.722 27.476 172.031 26.804C171.359 26.1133 171.023 25.2266 171.023 24.144C171.023 23.3786 171.247 22.66 171.695 21.988C172.162 21.316 172.853 20.7746 173.767 20.364C174.682 19.9346 175.821 19.72 177.183 19.72C180.021 19.72 182.055 20.588 183.287 22.324L180.991 24.564C180.581 23.9106 180.039 23.416 179.367 23.08C178.714 22.7253 178.023 22.548 177.295 22.548C175.653 22.548 174.831 23.0053 174.831 23.92C174.831 24.2186 174.962 24.48 175.223 24.704C175.485 24.9093 175.961 25.0866 176.651 25.236L179.507 25.824C180.889 26.104 181.878 26.58 182.475 27.252C183.073 27.9053 183.371 28.6986 183.371 29.632C183.371 30.976 182.83 32.0867 181.747 32.964C180.683 33.8413 179.153 34.28 177.155 34.28Z" fill="#003AAF"/>
</svg>
