<svg width="170" height="48" viewBox="0 0 170 48" fill="none" xmlns="http://www.w3.org/2000/svg">
<rect x="0.75" y="19.2" width="9.59998" height="9.59999" fill="#1E69FF"/>
<rect x="29.5508" y="28.8" width="9.6" height="9.59999" transform="rotate(180 29.5508 28.8)" fill="#1E69FF"/>
<path d="M10.3496 19.2L19.9496 9.59998V19.2L10.3496 28.8V19.2Z" fill="#84ADFF"/>
<path d="M19.9492 28.8L10.3492 38.4L10.3492 28.8L19.9492 19.2L19.9492 28.8Z" fill="#84ADFF"/>
<path d="M0.75 19.2L19.95 0V9.59999L10.35 19.2H0.75Z" fill="#1E69FF"/>
<path d="M29.5508 28.8L10.3508 48L10.3508 38.4L19.9508 28.8L29.5508 28.8Z" fill="#1E69FF"/>
<path d="M50.4585 34.28C48.9465 34.28 47.4811 34.0653 46.0625 33.636C44.6625 33.2066 43.5518 32.6373 42.7305 31.928L43.9905 29.1C44.7931 29.7346 45.7731 30.2573 46.9305 30.668C48.1065 31.06 49.2825 31.256 50.4585 31.256C51.9145 31.256 52.9971 31.0226 53.7065 30.556C54.4345 30.0893 54.7985 29.4733 54.7985 28.708C54.7985 28.148 54.5931 27.6906 54.1825 27.336C53.7905 26.9626 53.2865 26.6733 52.6705 26.468C52.0545 26.2626 51.2145 26.0293 50.1505 25.768C48.6571 25.4133 47.4438 25.0586 46.5105 24.704C45.5958 24.3493 44.8025 23.7986 44.1305 23.052C43.4771 22.2866 43.1505 21.26 43.1505 19.972C43.1505 18.8893 43.4398 17.9093 44.0185 17.032C44.6158 16.136 45.5025 15.4266 46.6785 14.904C47.8731 14.3813 49.3291 14.12 51.0465 14.12C52.2411 14.12 53.4171 14.2693 54.5745 14.568C55.7318 14.8666 56.7305 15.296 57.5705 15.856L56.4225 18.684C55.5638 18.18 54.6678 17.7973 53.7345 17.536C52.8011 17.2746 51.8958 17.144 51.0185 17.144C49.5811 17.144 48.5078 17.3866 47.7985 17.872C47.1078 18.3573 46.7625 19.0013 46.7625 19.804C46.7625 20.364 46.9585 20.8213 47.3505 21.176C47.7611 21.5306 48.2745 21.8106 48.8905 22.016C49.5065 22.2213 50.3465 22.4546 51.4105 22.716C52.8665 23.052 54.0611 23.4066 54.9945 23.78C55.9278 24.1346 56.7211 24.6853 57.3745 25.432C58.0465 26.1786 58.3825 27.1866 58.3825 28.456C58.3825 29.5386 58.0838 30.5186 57.4865 31.396C56.9078 32.2733 56.0211 32.9733 54.8265 33.496C53.6318 34.0186 52.1758 34.28 50.4585 34.28Z" fill="#003AAF"/>
<path d="M61.6558 19.048H65.1558V34H61.6558V19.048ZM63.4198 16.584C62.7852 16.584 62.2532 16.388 61.8238 15.996C61.3945 15.5853 61.1798 15.0813 61.1798 14.484C61.1798 13.8866 61.3945 13.392 61.8238 13C62.2532 12.5893 62.7852 12.384 63.4198 12.384C64.0545 12.384 64.5865 12.58 65.0158 12.972C65.4452 13.3453 65.6598 13.8213 65.6598 14.4C65.6598 15.016 65.4452 15.5386 65.0158 15.968C64.6052 16.3786 64.0732 16.584 63.4198 16.584Z" fill="#003AAF"/>
<path d="M74.3696 34.196C73.1562 34.196 71.9709 34.0373 70.8136 33.72C69.6563 33.4026 68.7322 33.0013 68.0416 32.516L69.3856 29.856C70.0576 30.304 70.8602 30.668 71.7936 30.948C72.7456 31.2093 73.6789 31.34 74.5936 31.34C76.6842 31.34 77.7296 30.7893 77.7296 29.688C77.7296 29.1653 77.4589 28.8013 76.9176 28.596C76.3949 28.3906 75.5456 28.1946 74.3696 28.008C73.1376 27.8213 72.1296 27.6066 71.3456 27.364C70.5802 27.1213 69.9082 26.7013 69.3296 26.104C68.7696 25.488 68.4896 24.6386 68.4896 23.556C68.4896 22.1373 69.0776 21.008 70.2536 20.168C71.4482 19.3093 73.0536 18.88 75.0696 18.88C76.0962 18.88 77.1229 19.0013 78.1496 19.244C79.1762 19.468 80.0162 19.776 80.6696 20.168L79.3256 22.828C78.0562 22.0813 76.6282 21.708 75.0416 21.708C74.0149 21.708 73.2309 21.8666 72.6896 22.184C72.1669 22.4826 71.9056 22.884 71.9056 23.388C71.9056 23.948 72.1856 24.3493 72.7456 24.592C73.3242 24.816 74.2109 25.0306 75.4056 25.236C76.6002 25.4226 77.5802 25.6373 78.3456 25.88C79.1109 26.1226 79.7642 26.5333 80.3056 27.112C80.8656 27.6906 81.1456 28.512 81.1456 29.576C81.1456 30.976 80.5389 32.096 79.3256 32.936C78.1122 33.776 76.4602 34.196 74.3696 34.196Z" fill="#003AAF"/>
<path d="M97.8863 19.048L90.8863 35.204C90.233 36.828 89.4396 37.9666 88.5063 38.62C87.573 39.292 86.4436 39.628 85.1183 39.628C84.3716 39.628 83.6343 39.5066 82.9063 39.264C82.1783 39.0213 81.581 38.6853 81.1143 38.256L82.5143 35.68C82.8503 35.9973 83.2423 36.2493 83.6903 36.436C84.157 36.6226 84.6236 36.716 85.0903 36.716C85.7063 36.716 86.2103 36.5573 86.6023 36.24C87.013 35.9226 87.3863 35.3906 87.7223 34.644L87.9743 34.056L81.4503 19.048H85.0903L89.7943 30.108L94.5263 19.048H97.8863Z" fill="#003AAF"/>
<path d="M108.362 18.88C109.818 18.88 111.115 19.1973 112.254 19.832C113.411 20.4666 114.316 21.3626 114.97 22.52C115.623 23.6773 115.95 25.012 115.95 26.524C115.95 28.036 115.623 29.38 114.97 30.556C114.316 31.7133 113.411 32.6093 112.254 33.244C111.115 33.8786 109.818 34.196 108.362 34.196C106.346 34.196 104.75 33.524 103.574 32.18V39.432H100.074V19.048H103.406V21.008C103.984 20.2986 104.694 19.7666 105.534 19.412C106.392 19.0573 107.335 18.88 108.362 18.88ZM107.97 31.2C109.258 31.2 110.312 30.7706 111.134 29.912C111.974 29.0533 112.394 27.924 112.394 26.524C112.394 25.124 111.974 23.9946 111.134 23.136C110.312 22.2773 109.258 21.848 107.97 21.848C107.13 21.848 106.374 22.044 105.702 22.436C105.03 22.8093 104.498 23.3506 104.106 24.06C103.714 24.7693 103.518 25.5906 103.518 26.524C103.518 27.4573 103.714 28.2786 104.106 28.988C104.498 29.6973 105.03 30.248 105.702 30.64C106.374 31.0133 107.13 31.2 107.97 31.2Z" fill="#003AAF"/>
<path d="M127.753 18.88C129.638 18.88 131.15 19.4306 132.289 20.532C133.428 21.6333 133.997 23.2666 133.997 25.432V34H130.497V25.88C130.497 24.5733 130.189 23.5933 129.573 22.94C128.957 22.268 128.08 21.932 126.941 21.932C125.653 21.932 124.636 22.324 123.889 23.108C123.142 23.8733 122.769 24.984 122.769 26.44V34H119.269V13.224H122.769V20.784C123.348 20.168 124.057 19.7013 124.897 19.384C125.756 19.048 126.708 18.88 127.753 18.88Z" fill="#003AAF"/>
<path d="M152.913 19.048V34H149.581V32.096C149.021 32.768 148.321 33.2906 147.481 33.664C146.641 34.0186 145.736 34.196 144.765 34.196C142.768 34.196 141.19 33.6453 140.033 32.544C138.894 31.424 138.325 29.772 138.325 27.588V19.048H141.825V27.112C141.825 28.456 142.124 29.464 142.721 30.136C143.337 30.7893 144.205 31.116 145.325 31.116C146.576 31.116 147.565 30.7333 148.293 29.968C149.04 29.184 149.413 28.064 149.413 26.608V19.048H152.913Z" fill="#003AAF"/>
<path d="M162.116 34.196C160.902 34.196 159.717 34.0373 158.56 33.72C157.402 33.4026 156.478 33.0013 155.788 32.516L157.132 29.856C157.804 30.304 158.606 30.668 159.54 30.948C160.492 31.2093 161.425 31.34 162.34 31.34C164.43 31.34 165.476 30.7893 165.476 29.688C165.476 29.1653 165.205 28.8013 164.664 28.596C164.141 28.3906 163.292 28.1946 162.116 28.008C160.884 27.8213 159.876 27.6066 159.092 27.364C158.326 27.1213 157.654 26.7013 157.076 26.104C156.516 25.488 156.236 24.6386 156.236 23.556C156.236 22.1373 156.824 21.008 158 20.168C159.194 19.3093 160.8 18.88 162.816 18.88C163.842 18.88 164.869 19.0013 165.896 19.244C166.922 19.468 167.762 19.776 168.416 20.168L167.072 22.828C165.802 22.0813 164.374 21.708 162.788 21.708C161.761 21.708 160.977 21.8666 160.436 22.184C159.913 22.4826 159.652 22.884 159.652 23.388C159.652 23.948 159.932 24.3493 160.492 24.592C161.07 24.816 161.957 25.0306 163.152 25.236C164.346 25.4226 165.326 25.6373 166.092 25.88C166.857 26.1226 167.51 26.5333 168.052 27.112C168.612 27.6906 168.892 28.512 168.892 29.576C168.892 30.976 168.285 32.096 167.072 32.936C165.858 33.776 164.206 34.196 162.116 34.196Z" fill="#003AAF"/>
</svg>
