<svg width="21" height="20" viewBox="0 0 21 20" fill="none" xmlns="http://www.w3.org/2000/svg">
<path fill-rule="evenodd" clip-rule="evenodd" d="M10.75 0C5.22939 0 0.75 4.47939 0.75 10C0.75 15.5206 5.22939 20 10.75 20C16.2598 20 20.75 15.5206 20.75 10C20.75 4.47939 16.2598 0 10.75 0ZM17.3552 4.60954C18.5483 6.06291 19.2641 7.91756 19.2858 9.92406C19.0038 9.86987 16.1838 9.295 13.3422 9.65294C13.2771 9.51194 13.2229 9.36006 13.1578 9.20825C12.9843 8.79613 12.7891 8.37313 12.5938 7.97181C15.7391 6.692 17.1708 4.84816 17.3552 4.60954ZM10.75 1.47506C12.9192 1.47506 14.904 2.28851 16.4116 3.62256C16.2597 3.83948 14.9691 5.56399 11.9322 6.70281C10.5331 4.13232 8.98213 2.0282 8.7435 1.70282C9.38338 1.55097 10.0559 1.47506 10.75 1.47506ZM7.11662 2.27766C7.34437 2.58134 8.86281 4.69631 10.2836 7.21256C6.2923 8.2755 2.76736 8.25381 2.38774 8.25381C2.94089 5.60738 4.73047 3.40564 7.11662 2.27766ZM2.20336 10.0109C2.20336 9.92406 2.20336 9.83731 2.20336 9.75056C2.57213 9.76137 6.71529 9.81563 10.9778 8.53581C11.2273 9.013 11.455 9.50106 11.6719 9.98913C11.5634 10.0217 11.4441 10.0542 11.3357 10.0868C6.93221 11.5076 4.58948 15.3904 4.39425 15.7158C3.0385 14.2083 2.20336 12.2018 2.20336 10.0109ZM10.75 18.5466C8.776 18.5466 6.95391 17.8742 5.51139 16.7462C5.66323 16.4317 7.39856 13.0911 12.2142 11.41C12.2359 11.3991 12.2468 11.3991 12.2684 11.3883C13.4723 14.5011 13.9604 17.1149 14.0906 17.8633C13.0602 18.308 11.9322 18.5466 10.75 18.5466ZM15.5114 17.0824C15.4246 16.5618 14.9691 14.0673 13.8519 10.9978C16.5309 10.5748 18.8736 11.269 19.1665 11.3666C18.7978 13.7419 17.4311 15.7917 15.5114 17.0824Z" fill="#98A2B3"/>
</svg>
