<svg width="96" height="96" viewBox="0 0 96 96" fill="none" xmlns="http://www.w3.org/2000/svg">
<path id="Vector" d="M92.7266 66.4187C93.7632 67.4553 94.5855 68.6859 95.1465 70.0403C95.7075 71.3947 95.9962 72.8463 95.9962 74.3122C95.9962 75.7782 95.7075 77.2299 95.1465 78.5843C94.5855 79.9387 93.7632 81.1693 92.7266 82.2059L82.2059 92.7303C81.1693 93.7669 79.9387 94.5892 78.5843 95.1502C77.2299 95.7112 75.7782 96 74.3122 96C72.8463 96 71.3947 95.7112 70.0403 95.1502C68.6859 94.5892 67.4552 93.7669 66.4186 92.7303L55.8942 82.2059C54.8576 81.1693 53.627 80.347 52.2726 79.786C50.9182 79.225 49.4666 78.9362 48.0006 78.9362C46.5346 78.9362 45.083 79.225 43.7286 79.786C42.3742 80.347 41.1436 81.1693 40.107 82.2059L29.5826 92.7303C28.546 93.7669 27.3153 94.5892 25.9609 95.1502C24.6066 95.7112 23.1549 96 21.689 96C20.223 96 18.7713 95.7112 17.4169 95.1502C16.0625 94.5892 14.8319 93.7669 13.7953 92.7303L3.26968 82.2059C2.23307 81.1693 1.41076 79.9387 0.849746 78.5843C0.288735 77.2299 0 75.7782 0 74.3122C0 72.8463 0.288735 71.3947 0.849746 70.0403C1.41076 68.6859 2.23307 67.4553 3.26968 66.4187L13.7953 55.8942C14.8319 54.8576 15.6542 53.627 16.2152 52.2726C16.7762 50.9182 17.065 49.4666 17.065 48.0006C17.065 46.5346 16.7762 45.083 16.2152 43.7286C15.6542 42.3742 14.8319 41.1436 13.7953 40.107L3.26968 29.5813C2.23307 28.5447 1.41076 27.3141 0.849746 25.9597C0.288735 24.6053 0 23.1537 0 21.6877C0 20.2217 0.288735 18.7701 0.849746 17.4157C1.41076 16.0613 2.23307 14.8307 3.26968 13.7941L13.7953 3.26968C14.8319 2.23307 16.0625 1.41079 17.4169 0.849777C18.7713 0.288765 20.223 0 21.689 0C23.1549 0 24.6066 0.288765 25.9609 0.849777C27.3153 1.41079 28.546 2.23307 29.5826 3.26968L40.107 13.7941C41.1436 14.8307 42.3742 15.653 43.7286 16.214C45.083 16.775 46.5346 17.0637 48.0006 17.0637C49.4666 17.0637 50.9182 16.775 52.2726 16.214C53.627 15.653 54.8576 14.8307 55.8942 13.7941L66.4186 3.26968C67.4552 2.23307 68.6859 1.41079 70.0403 0.849777C71.3947 0.288765 72.8463 0 74.3122 0C75.7782 0 77.2299 0.288765 78.5843 0.849777C79.9387 1.41079 81.1693 2.23307 82.2059 3.26968L92.7303 13.7941C93.7669 14.8307 94.5892 16.0613 95.1502 17.4157C95.7112 18.7701 96 20.2217 96 21.6877C96 23.1537 95.7112 24.6053 95.1502 25.9597C94.5892 27.3141 93.7669 28.5447 92.7303 29.5813L82.2059 40.107C81.1693 41.1436 79.9387 41.9659 78.5843 42.5269C77.2299 43.0879 75.7782 43.3766 74.3122 43.3766C72.8463 43.3766 71.3947 43.0879 70.0403 42.5269C68.6859 41.9659 67.4552 41.1436 66.4186 40.107L55.8942 29.5813C54.8576 28.5447 53.627 27.7224 52.2726 27.1614C50.9182 26.6004 49.4666 26.3116 48.0006 26.3116C46.5346 26.3116 45.083 26.6004 43.7286 27.1614C42.3742 27.7224 41.1436 28.5447 40.107 29.5813L29.5826 40.107C28.546 41.1436 27.7237 42.3742 27.1627 43.7286C26.6017 45.083 26.3129 46.5346 26.3129 48.0006C26.3129 49.4666 26.6017 50.9182 27.1627 52.2726C27.7237 53.627 28.546 54.8576 29.5826 55.8942L40.107 66.4187C41.1436 67.4553 42.3742 68.2776 43.7286 68.8386C45.083 69.3996 46.5346 69.6883 48.0006 69.6883C49.4666 69.6883 50.9182 69.3996 52.2726 68.8386C53.627 68.2776 54.8576 67.4553 55.8942 66.4187L66.4186 55.8942C67.4552 54.8576 68.6859 54.0354 70.0403 53.4743C71.3947 52.9133 72.8463 52.6246 74.3122 52.6246C75.7782 52.6246 77.2299 52.9133 78.5843 53.4743C79.9387 54.0354 81.1693 54.8576 82.2059 55.8942L92.7266 66.4187Z" fill="#004EEA"/>
</svg>